Coordinates
version=1
nRows=10
nColumns=40
inDegrees=yes

Units are S.I. units (second, meters, Newtons, ...)
Angles are in degrees.

endheader
time	pelvis_tilt	pelvis_list	pelvis_rotation	pelvis_tx	pelvis_ty	pelvis_tz	hip_flexion_r	hip_adduction_r	hip_rotation_r	knee_angle_r	knee_angle_r_beta	ankle_angle_r	subtalar_angle_r	mtp_angle_r	hip_flexion_l	hip_adduction_l	hip_rotation_l	knee_angle_l	knee_angle_l_beta	ankle_angle_l	subtalar_angle_l	mtp_angle_l	lumbar_extension	lumbar_bending	lumbar_rotation	arm_flex_r	arm_add_r	arm_rot_r	elbow_flex_r	pro_sup_r	wrist_flex_r	wrist_dev_r	arm_flex_l	arm_add_l	arm_rot_l	elbow_flex_l	pro_sup_l	wrist_flex_l	wrist_dev_l
     53.84628571	     -6.78407350	     -7.17466671	      3.41624975	      0.93553734	      0.92552301	      0.50321642	     11.56365450	      5.55835164	    -17.52728742	     13.44137391	     13.44137391	     10.75531797	     -0.84987124	     -4.19555936	     45.63302168	    -10.94400499	      7.21853820	     63.42039268	     63.42039268	      5.18968461	    -18.96591644	     15.41129442	    -12.57753996	      4.93109166	      4.75504231	     14.88801681	    -13.68957966	     -7.02584843	     63.31457979	     45.49408750	      0.00000000	      0.00000000	      3.95830853	     -7.22801627	     -5.21936995	     41.22001359	     47.25415203	      0.00000000	      0.00000000
     53.85757143	     -6.74685626	     -7.16887180	      3.59708520	      0.93490542	      0.92528401	      0.50310808	     10.87762123	      5.62907484	    -17.53026288	     13.17865371	     13.17865371	     11.07301980	     -0.84218114	     -4.26502429	     46.01340511	    -10.76393313	      6.94850292	     60.58180059	     60.58180059	      5.44006358	    -18.89678559	     15.61698275	    -12.64003192	      4.92470450	      4.22367500	     17.61089309	    -13.41688066	     -7.06079544	     65.60052365	     45.42913677	      0.00000000	      0.00000000	      2.57718402	     -7.26564769	     -4.94768735	     39.01539713	     47.18096955	      0.00000000	      0.00000000
     53.86885714	     -6.77211956	     -7.20112487	      3.72414788	      0.93437518	      0.92487346	      0.50283079	     10.23716761	      5.71640456	    -17.60555435	     12.89164723	     12.89164723	     11.36884374	     -0.62152260	     -4.42127036	     46.26241394	    -10.57597574	      6.78018972	     57.46387708	     57.46387708	      5.40133259	    -18.75636644	     15.06750714	    -12.57455168	      5.01432133	      4.57959588	     19.51615086	    -14.27295702	     -6.03921192	     69.02391653	     45.28906715	      0.00000000	      0.00000000	      2.72411510	     -6.92835997	     -4.18491587	     33.93930937	     47.01546123	      0.00000000	      0.00000000
     53.88014286	     -6.77867000	     -7.21932779	      3.81014357	      0.93399758	      0.92447326	      0.50243663	      9.55872730	      5.78382784	    -17.67575883	     12.60081447	     12.60081447	     11.69410458	     -0.33833696	     -4.50251864	     46.25778853	    -10.34180258	      6.70635390	     54.05959498	     54.05959498	      5.24155489	    -18.48769998	     14.16923825	    -12.55441755	      5.07329017	      4.60842723	     21.74531513	    -14.54675347	     -5.69303672	     72.10625290	     45.19316114	      0.00000000	      0.00000000	      1.95675991	     -6.80884706	     -3.42051372	     31.06536770	     46.84077207	      0.00000000	      0.00000000
     53.89142857	     -6.78486013	     -7.19671702	      3.83844592	      0.93381489	      0.92404854	      0.50191480	      8.83983314	      5.81586982	    -17.65672844	     12.27301167	     12.27301167	     12.03546427	     -0.07711695	     -4.57791758	     46.05174674	    -10.02826181	      6.77555239	     50.50542860	     50.50542860	      5.45909482	    -17.94841877	     14.05715907	    -12.50727585	      5.08566367	      4.33894659	     24.41596436	    -14.30830549	     -5.56077844	     74.42113080	     45.12583744	      0.00000000	      0.00000000	      0.55522333	     -6.78745503	     -3.09163411	     29.64232253	     46.75807651	      0.00000000	      0.00000000
     53.90271429	     -6.86526691	     -7.22301292	      3.79529335	      0.93372554	      0.92350338	      0.50139916	      8.21303579	      5.88149613	    -17.65772371	     11.97179120	     11.97179120	     12.31368762	      0.27757625	     -4.65775429	     45.75551214	     -9.85760270	      6.79585394	     46.78353213	     46.78353213	      5.69880122	    -17.00332261	     13.93346317	    -12.39622197	      5.11278519	      4.39989439	     26.96836486	    -14.43193234	     -5.31692586	     76.50764555	     45.06180463	      0.00000000	      0.00000000	     -0.72336574	     -6.68306850	     -2.78513454	     28.47521391	     46.68319448	      0.00000000	      0.00000000
     53.91400000	     -6.81325162	     -7.32796002	      3.78829231	      0.93404952	      0.92297781	      0.50074825	      7.30274610	      6.05102685	    -17.84639367	     11.45977894	     11.45977894	     12.66872319	      1.02643274	     -4.71539467	     45.17138320	     -9.78078350	      6.93498886	     42.99770856	     42.99770856	      5.88821644	    -15.67488529	     13.25662070	    -12.41127323	      5.27375249	      4.10782680	     29.34816019	    -14.30689081	     -4.30379698	     79.57965811	     44.94184618	      0.00000000	      0.00000000	     -2.06291003	     -6.60455704	     -2.15650545	     26.94597898	     46.54861397	      0.00000000	      0.00000000
     53.92528571	     -7.04713515	     -7.48302914	      3.67721448	      0.93440587	      0.92189311	      0.50000250	      6.86021647	      6.22068830	    -17.82489045	     11.25606924	     11.25606924	     13.02860572	      1.30859017	     -4.85243239	     44.78496353	     -9.76217783	      7.10057766	     39.26389062	     39.26389062	      6.28461890	    -14.32608033	     13.37624840	    -11.91749584	      5.53022463	      4.65937608	     31.74379086	    -14.78491693	     -4.28098606	     81.01255603	     44.90619982	      0.00000000	      0.00000000	     -3.23984540	     -6.37100557	     -1.96720154	     26.35305674	     46.49324422	      0.00000000	      0.00000000
     53.93657143	     -7.09917596	     -7.51555808	      3.53188232	      0.93517563	      0.92110091	      0.49919526	      6.06524750	      6.29402148	    -17.79794050	     10.83038364	     10.83038364	     13.38434184	      1.84479101	     -4.93296446	     43.97881236	     -9.77223146	      6.97764332	     35.51113553	     35.51113553	      6.66461773	    -12.77182182	     13.49386116	    -11.69380966	      5.58558811	      4.82379864	     34.17520674	    -14.82897671	     -3.89930596	     83.07904175	     44.83863631	      0.00000000	      0.00000000	     -4.52225812	     -6.21290862	     -1.68300183	     25.67537627	     46.41769615	      0.00000000	      0.00000000
     53.94785714	     -6.85833064	     -7.61282306	      3.39796804	      0.93669657	      0.92050019	      0.49826884	      4.66715557	      6.43938405	    -18.45008095	      9.99885809	      9.99885809	     13.93337420	      3.84062011	     -4.59437940	     42.76915672	     -9.98705923	      6.54129449	     31.96659683	     31.96659683	      6.65204615	    -11.06931417	     12.12038336	    -11.89946372	      5.76696776	      4.85318865	     35.90140908	    -15.88893930	     -0.75348357	     88.17256726	     44.60813917	      0.00000000	      0.00000000	     -6.17716399	     -6.39909549	      0.66588264	     25.58225764	     45.92202795	      0.00000000	      0.00000000
